<svg xmlns="http://www.w3.org/2000/svg" width="338" height="34" viewBox="0 0 338 34" fill="none">
<path d="M0.639844 33V0.799997H8.68984V33H0.639844ZM13.7746 33V0.799997H20.6746L34.3746 20.05V0.799997H42.4746V33H35.5246L21.8246 13.8V33H13.7746ZM55.0137 33V7H45.5637V0.799997H72.5137V7H63.0637V33H55.0137ZM76.1281 33V0.799997H99.8781V7H84.1781V13.75H98.0281V20.05H84.1781V26.8H99.8781V33H76.1281ZM103.716 33V0.799997H119.816C123.616 0.799997 126.416 1.8 128.216 3.8C130.016 5.8 130.916 8.48333 130.916 11.85C130.916 14.0167 130.366 15.9167 129.266 17.55C128.166 19.1833 126.666 20.4 124.766 21.2C125.233 21.5667 125.599 21.9833 125.866 22.45C126.166 22.8833 126.483 23.5 126.816 24.3L130.616 33H122.216L118.616 24.8C118.316 24.1 117.933 23.6 117.466 23.3C116.999 22.9667 116.333 22.8 115.466 22.8H111.766V33H103.716ZM111.766 16.6H117.716C119.283 16.6 120.499 16.2167 121.366 15.45C122.266 14.65 122.716 13.45 122.716 11.85C122.716 8.61667 121.166 7 118.066 7H111.766V16.6ZM142.465 33V7H133.015V0.799997H159.965V7H150.515V33H142.465ZM163.579 33V0.799997H179.679C183.479 0.799997 186.279 1.8 188.079 3.8C189.879 5.8 190.779 8.48333 190.779 11.85C190.779 14.0167 190.229 15.9167 189.129 17.55C188.029 19.1833 186.529 20.4 184.629 21.2C185.096 21.5667 185.463 21.9833 185.729 22.45C186.029 22.8833 186.346 23.5 186.679 24.3L190.479 33H182.079L178.479 24.8C178.179 24.1 177.796 23.6 177.329 23.3C176.863 22.9667 176.196 22.8 175.329 22.8H171.629V33H163.579ZM171.629 16.6H177.579C179.146 16.6 180.363 16.2167 181.229 15.45C182.129 14.65 182.579 13.45 182.579 11.85C182.579 8.61667 181.029 7 177.929 7H171.629V16.6ZM191.632 33L203.932 0.799997H212.632L224.932 33H216.532L213.632 25.7H202.882L200.032 33H191.632ZM203.982 19.75H212.532L208.232 8.55L203.982 19.75ZM229.009 33V0.799997H242.959C246.226 0.799997 248.976 1.35 251.209 2.45C253.442 3.51666 255.142 5.25 256.309 7.65C257.476 10.0167 258.059 13.1667 258.059 17.1C258.059 22.6333 256.776 26.6667 254.209 29.2C251.676 31.7333 247.926 33 242.959 33H229.009ZM237.059 26.8H241.859C243.592 26.8 245.042 26.55 246.209 26.05C247.409 25.5167 248.309 24.55 248.909 23.15C249.542 21.75 249.859 19.7333 249.859 17.1C249.859 14.4333 249.576 12.3833 249.009 10.95C248.476 9.48333 247.609 8.46667 246.409 7.9C245.242 7.3 243.726 7 241.859 7H237.059V26.8ZM262.163 33V0.799997H270.213V33H262.163ZM275.298 33V0.799997H282.198L295.898 20.05V0.799997H303.998V33H297.048L283.348 13.8V33H275.298ZM325.137 33.5C319.57 33.5 315.337 32.1 312.437 29.3C309.537 26.4667 308.087 22.4833 308.087 17.35C308.087 11.9833 309.57 7.8 312.537 4.8C315.504 1.8 319.87 0.299998 325.637 0.299998C327.604 0.299998 329.37 0.416665 330.937 0.649999C332.537 0.883332 334.054 1.23333 335.487 1.7V8.6C334.054 8.06667 332.554 7.7 330.987 7.5C329.454 7.3 327.87 7.2 326.237 7.2C322.77 7.2 320.237 8.03333 318.637 9.7C317.07 11.3333 316.287 13.8833 316.287 17.35C316.287 20.5167 317.037 22.8667 318.537 24.4C320.037 25.9 322.254 26.65 325.187 26.65C327.12 26.65 328.92 26.3833 330.587 25.85V19.75H323.637V14.7H337.337V30.65C336.204 31.3833 334.62 32.05 332.587 32.65C330.587 33.2167 328.104 33.5 325.137 33.5Z" fill="white"/>
</svg>